<svg xmlns="http://www.w3.org/2000/svg" width="1440" height="900"><path d="M738,558L857,420L690,498Z" fill="#fb9125" stroke="#fb9125" stroke-width="1.51"/><path d="M738,558L869,548L857,420Z" fill="#f88b21" stroke="#f88b21" stroke-width="1.51"/><path d="M869,548L976,486L857,420Z" fill="#f78720" stroke="#f78720" stroke-width="1.51"/><path d="M857,420L727,257L690,498Z" fill="#fd9d2e" stroke="#fd9d2e" stroke-width="1.51"/><path d="M741,202L727,257L907,221Z" fill="#fdad43" stroke="#fdad43" stroke-width="1.51"/><path d="M727,257L536,458L690,498Z" fill="#fea534" stroke="#fea534" stroke-width="1.51"/><path d="M690,498L655,694L738,558Z" fill="#f88c23" stroke="#f88c23" stroke-width="1.51"/><path d="M738,558L833,744L869,548Z" fill="#f37f1c" stroke="#f37f1c" stroke-width="1.51"/><path d="M869,548L1029,655L976,486Z" fill="#f07919" stroke="#f07919" stroke-width="1.51"/><path d="M514,557L655,694L690,498Z" fill="#f89329" stroke="#f89329" stroke-width="1.51"/><path d="M655,694L833,744L738,558Z" fill="#f1801c" stroke="#f1801c" stroke-width="1.51"/><path d="M727,257L517,288L536,458Z" fill="#ffb23f" stroke="#ffb23f" stroke-width="1.51"/><path d="M907,221L727,257L857,420Z" fill="#fba335" stroke="#fba335" stroke-width="1.51"/><path d="M536,458L514,557L690,498Z" fill="#fc9f31" stroke="#fc9f31" stroke-width="1.51"/><path d="M976,486L907,221L857,420Z" fill="#f89329" stroke="#f89329" stroke-width="1.51"/><path d="M833,744L1029,655L869,548Z" fill="#ed7416" stroke="#ed7416" stroke-width="1.51"/><path d="M976,486L1093,234L907,221Z" fill="#f5952e" stroke="#f5952e" stroke-width="1.51"/><path d="M622,133L517,288L727,257Z" fill="#ffbb4d" stroke="#ffbb4d" stroke-width="1.51"/><path d="M536,458L369,401L514,557Z" fill="#feab3b" stroke="#feab3b" stroke-width="1.51"/><path d="M1148,542L1134,449L976,486Z" fill="#ec7818" stroke="#ec7818" stroke-width="1.51"/><path d="M1029,655L1148,542L976,486Z" fill="#eb7316" stroke="#eb7316" stroke-width="1.51"/><path d="M741,202L622,133L727,257Z" fill="#ffb74d" stroke="#ffb74d" stroke-width="1.51"/><path d="M725,-67L622,133L741,202Z" fill="#ffc062" stroke="#ffc062" stroke-width="1.51"/><path d="M1134,449L1093,234L976,486Z" fill="#f18723" stroke="#f18723" stroke-width="1.51"/><path d="M907,221L889,73L741,202Z" fill="#fcae4d" stroke="#fcae4d" stroke-width="1.51"/><path d="M1029,655L1194,731L1148,542Z" fill="#e1650e" stroke="#e1650e" stroke-width="1.51"/><path d="M833,744L1042,774L1029,655Z" fill="#e46810" stroke="#e46810" stroke-width="1.51"/><path d="M833,744L885,870L1042,774Z" fill="#df640e" stroke="#df640e" stroke-width="1.51"/><path d="M675,988L885,870L833,744Z" fill="#d96913" stroke="#d96913" stroke-width="1.51"/><path d="M655,694L675,988L833,744Z" fill="#e57316" stroke="#e57316" stroke-width="1.51"/><path d="M514,557L536,808L655,694Z" fill="#f18c28" stroke="#f18c28" stroke-width="1.51"/><path d="M1079,79L889,73L907,221Z" fill="#faaa51" stroke="#faaa51" stroke-width="1.51"/><path d="M517,288L369,401L536,458Z" fill="#ffb643" stroke="#ffb643" stroke-width="1.51"/><path d="M514,557L382,658L536,808Z" fill="#f39630" stroke="#f39630" stroke-width="1.51"/><path d="M347,239L369,401L517,288Z" fill="#ffc352" stroke="#ffc352" stroke-width="1.51"/><path d="M1093,234L1079,79L907,221Z" fill="#f5a045" stroke="#f5a045" stroke-width="1.51"/><path d="M1134,449L1145,240L1093,234Z" fill="#ed8d2a" stroke="#ed8d2a" stroke-width="1.51"/><path d="M1216,183L1145,240L1377,429Z" fill="#e68829" stroke="#e68829" stroke-width="1.51"/><path d="M297,564L382,658L514,557Z" fill="#f9a33e" stroke="#f9a33e" stroke-width="1.51"/><path d="M1042,774L1194,731L1029,655Z" fill="#dc600b" stroke="#dc600b" stroke-width="1.51"/><path d="M1377,429L1145,240L1134,449Z" fill="#e77e20" stroke="#e77e20" stroke-width="1.51"/><path d="M1265,874L1194,731L1042,774Z" fill="#d15304" stroke="#d15304" stroke-width="1.51"/><path d="M536,808L675,988L655,694Z" fill="#e37b1e" stroke="#e37b1e" stroke-width="1.51"/><path d="M382,658L435,819L536,808Z" fill="#eb8f2e" stroke="#eb8f2e" stroke-width="1.51"/><path d="M227,836L376,981L435,819Z" fill="#de8b3a" stroke="#de8b3a" stroke-width="1.51"/><path d="M369,401L297,564L514,557Z" fill="#fdac43" stroke="#fdac43" stroke-width="1.51"/><path d="M400,67L347,239L517,288Z" fill="#ffcd63" stroke="#ffcd63" stroke-width="1.51"/><path d="M369,401L190,475L297,564Z" fill="#ffb654" stroke="#ffb654" stroke-width="1.51"/><path d="M435,819L543,908L536,808Z" fill="#e18327" stroke="#e18327" stroke-width="1.51"/><path d="M1145,240L1079,79L1093,234Z" fill="#f09a40" stroke="#f09a40" stroke-width="1.51"/><path d="M885,870L980,931L1042,774Z" fill="#d55b0b" stroke="#d55b0b" stroke-width="1.51"/><path d="M845,1076L980,931L885,870Z" fill="#c8590e" stroke="#c8590e" stroke-width="1.51"/><path d="M1145,240L1216,183L1079,79Z" fill="#ee9942" stroke="#ee9942" stroke-width="1.51"/><path d="M1377,429L1134,449L1148,542Z" fill="#e57215" stroke="#e57215" stroke-width="1.51"/><path d="M543,908L675,988L536,808Z" fill="#d87821" stroke="#d87821" stroke-width="1.51"/><path d="M1207,5L1047,17L1079,79Z" fill="#f3a558" stroke="#f3a558" stroke-width="1.51"/><path d="M1079,79L1047,17L889,73Z" fill="#f8ab59" stroke="#f8ab59" stroke-width="1.51"/><path d="M889,73L725,-67L741,202Z" fill="#ffbb60" stroke="#ffbb60" stroke-width="1.51"/><path d="M1047,17L930,-45L889,73Z" fill="#fcb160" stroke="#fcb160" stroke-width="1.51"/><path d="M622,133L400,67L517,288Z" fill="#ffc961" stroke="#ffc961" stroke-width="1.51"/><path d="M930,-45L725,-67L889,73Z" fill="#ffbb68" stroke="#ffbb68" stroke-width="1.51"/><path d="M347,239L267,269L369,401Z" fill="#ffc85e" stroke="#ffc85e" stroke-width="1.51"/><path d="M302,153L267,269L347,239Z" fill="#ffd26e" stroke="#ffd26e" stroke-width="1.51"/><path d="M622,-59L471,15L622,133Z" fill="#ffce71" stroke="#ffce71" stroke-width="1.51"/><path d="M725,-67L622,-59L622,133Z" fill="#ffc96f" stroke="#ffc96f" stroke-width="1.51"/><path d="M471,15L400,67L622,133Z" fill="#ffd171" stroke="#ffd171" stroke-width="1.51"/><path d="M400,67L302,153L347,239Z" fill="#ffd575" stroke="#ffd575" stroke-width="1.51"/><path d="M675,988L727,1053L885,870Z" fill="#cb6414" stroke="#cb6414" stroke-width="1.51"/><path d="M504,1086L727,1053L675,988Z" fill="#c36a1c" stroke="#c36a1c" stroke-width="1.51"/><path d="M227,836L435,819L382,658Z" fill="#ec943c" stroke="#ec943c" stroke-width="1.51"/><path d="M267,269L190,475L369,401Z" fill="#ffc35d" stroke="#ffc35d" stroke-width="1.51"/><path d="M121,619L190,475L31,458Z" fill="#ffba63" stroke="#ffba63" stroke-width="1.51"/><path d="M1412,552L1377,429L1148,542Z" fill="#da6912" stroke="#da6912" stroke-width="1.51"/><path d="M930,-45L914,-114L725,-67Z" fill="#ffbd6f" stroke="#ffbd6f" stroke-width="1.51"/><path d="M725,-67L684,-208L622,-59Z" fill="#ffcc7b" stroke="#ffcc7b" stroke-width="1.51"/><path d="M1102,-196L914,-114L930,-45Z" fill="#fdb46f" stroke="#fdb46f" stroke-width="1.51"/><path d="M1102,-196L930,-45L1047,17Z" fill="#fab168" stroke="#fab168" stroke-width="1.51"/><path d="M980,931L1265,874L1042,774Z" fill="#cc5306" stroke="#cc5306" stroke-width="1.51"/><path d="M727,1053L845,1076L885,870Z" fill="#c55e11" stroke="#c55e11" stroke-width="1.51"/><path d="M1194,731L1412,552L1148,542Z" fill="#db600c" stroke="#db600c" stroke-width="1.51"/><path d="M1227,1093L1265,874L980,931Z" fill="#ba4605" stroke="#ba4605" stroke-width="1.51"/><path d="M1216,183L1207,5L1079,79Z" fill="#ee9f50" stroke="#ee9f50" stroke-width="1.51"/><path d="M1364,11L1207,5L1216,183Z" fill="#e79950" stroke="#e79950" stroke-width="1.51"/><path d="M1330,800L1412,552L1194,731Z" fill="#ce5407" stroke="#ce5407" stroke-width="1.51"/><path d="M1265,874L1330,800L1194,731Z" fill="#c94b02" stroke="#c94b02" stroke-width="1.51"/><path d="M543,908L504,1086L675,988Z" fill="#ca7220" stroke="#ca7220" stroke-width="1.51"/><path d="M435,819L376,981L543,908Z" fill="#d9832b" stroke="#d9832b" stroke-width="1.51"/><path d="M227,836L382,658L297,564Z" fill="#f49f46" stroke="#f49f46" stroke-width="1.51"/><path d="M121,619L227,836L297,564Z" fill="#f5a652" stroke="#f5a652" stroke-width="1.51"/><path d="M727,1053L842,1229L845,1076Z" fill="#b35913" stroke="#b35913" stroke-width="1.51"/><path d="M376,981L504,1086L543,908Z" fill="#cb7b27" stroke="#cb7b27" stroke-width="1.51"/><path d="M1377,429L1426,268L1216,183Z" fill="#dc8228" stroke="#dc8228" stroke-width="1.51"/><path d="M1412,552L1452,452L1377,429Z" fill="#d16714" stroke="#d16714" stroke-width="1.51"/><path d="M1524,354L1452,452L1612,415Z" fill="#c76b1b" stroke="#c76b1b" stroke-width="1.51"/><path d="M190,475L121,619L297,564Z" fill="#fdb35a" stroke="#fdb35a" stroke-width="1.51"/><path d="M46,330L190,475L267,269Z" fill="#ffcb6b" stroke="#ffcb6b" stroke-width="1.51"/><path d="M1524,354L1426,268L1377,429Z" fill="#d17521" stroke="#d17521" stroke-width="1.51"/><path d="M302,153L110,159L267,269Z" fill="#ffd97d" stroke="#ffd97d" stroke-width="1.51"/><path d="M400,67L283,9L302,153Z" fill="#ffdc84" stroke="#ffdc84" stroke-width="1.51"/><path d="M471,15L283,9L400,67Z" fill="#ffdb82" stroke="#ffdb82" stroke-width="1.51"/><path d="M370,-180L283,9L471,15Z" fill="#ffe18d" stroke="#ffe18d" stroke-width="1.51"/><path d="M622,-59L500,-242L471,15Z" fill="#ffd883" stroke="#ffd883" stroke-width="1.51"/><path d="M914,-114L684,-208L725,-67Z" fill="#ffc578" stroke="#ffc578" stroke-width="1.51"/><path d="M1102,-196L684,-208L914,-114Z" fill="#ffbc78" stroke="#ffbc78" stroke-width="1.51"/><path d="M845,1076L1051,1114L980,931Z" fill="#ba500d" stroke="#ba500d" stroke-width="1.51"/><path d="M842,1229L1051,1114L845,1076Z" fill="#ac4f10" stroke="#ac4f10" stroke-width="1.51"/><path d="M376,981L368,1034L504,1086Z" fill="#c67c2f" stroke="#c67c2f" stroke-width="1.51"/><path d="M276,1061L368,1034L376,981Z" fill="#c78138" stroke="#c78138" stroke-width="1.51"/><path d="M121,619L102,738L227,836Z" fill="#f1a355" stroke="#f1a355" stroke-width="1.51"/><path d="M227,836L206,956L376,981Z" fill="#d88c43" stroke="#d88c43" stroke-width="1.51"/><path d="M283,9L110,159L302,153Z" fill="#fee08b" stroke="#fee08b" stroke-width="1.51"/><path d="M-145,648L-75,792L102,738Z" fill="#f4aa65" stroke="#f4aa65" stroke-width="1.51"/><path d="M1207,5L1102,-196L1047,17Z" fill="#f4a963" stroke="#f4a963" stroke-width="1.51"/><path d="M1180,-216L1102,-196L1207,5Z" fill="#f3a96a" stroke="#f3a96a" stroke-width="1.51"/><path d="M1426,268L1410,76L1216,183Z" fill="#dd8c3c" stroke="#dd8c3c" stroke-width="1.51"/><path d="M1558,206L1410,76L1426,268Z" fill="#d1853a" stroke="#d1853a" stroke-width="1.51"/><path d="M1410,76L1364,11L1216,183Z" fill="#e0944c" stroke="#e0944c" stroke-width="1.51"/><path d="M110,159L46,330L267,269Z" fill="#ffd77a" stroke="#ffd77a" stroke-width="1.51"/><path d="M120,991L206,956L227,836Z" fill="#d8914c" stroke="#d8914c" stroke-width="1.51"/><path d="M46,330L31,458L190,475Z" fill="#ffc66c" stroke="#ffc66c" stroke-width="1.51"/><path d="M1452,452L1524,354L1377,429Z" fill="#cf6d1a" stroke="#cf6d1a" stroke-width="1.51"/><path d="M1575,566L1452,452L1412,552Z" fill="#c85e11" stroke="#c85e11" stroke-width="1.51"/><path d="M742,1308L727,1053L530,1293Z" fill="#af611b" stroke="#af611b" stroke-width="1.51"/><path d="M742,1308L842,1229L727,1053Z" fill="#ae5915" stroke="#ae5915" stroke-width="1.51"/><path d="M1330,800L1446,837L1412,552Z" fill="#c34c06" stroke="#c34c06" stroke-width="1.51"/><path d="M1427,893L1446,837L1330,800Z" fill="#b64104" stroke="#b64104" stroke-width="1.51"/><path d="M1427,893L1330,800L1265,874Z" fill="#ba4303" stroke="#ba4303" stroke-width="1.51"/><path d="M1051,1114L1227,1093L980,931Z" fill="#b24709" stroke="#b24709" stroke-width="1.51"/><path d="M842,1229L1064,1180L1051,1114Z" fill="#a6490d" stroke="#a6490d" stroke-width="1.51"/><path d="M1064,1180L1227,1093L1051,1114Z" fill="#a34209" stroke="#a34209" stroke-width="1.51"/><path d="M684,-208L500,-242L622,-59Z" fill="#ffd487" stroke="#ffd487" stroke-width="1.51"/><path d="M283,9L126,-85L110,159Z" fill="#ffe79c" stroke="#ffe79c" stroke-width="1.51"/><path d="M1180,-216L500,-242L684,-208Z" fill="#ffc583" stroke="#ffc583" stroke-width="1.51"/><path d="M1341,1102L1427,893L1265,874Z" fill="#ab3d04" stroke="#ab3d04" stroke-width="1.51"/><path d="M500,-242L370,-180L471,15Z" fill="#ffdf8f" stroke="#ffdf8f" stroke-width="1.51"/><path d="M375,1264L530,1293L504,1086Z" fill="#b07128" stroke="#b07128" stroke-width="1.51"/><path d="M206,956L276,1061L376,981Z" fill="#cc863f" stroke="#cc863f" stroke-width="1.51"/><path d="M1447,1083L1443,890L1427,893Z" fill="#a23804" stroke="#a23804" stroke-width="1.51"/><path d="M1427,893L1443,890L1446,837Z" fill="#ae3e04" stroke="#ae3e04" stroke-width="1.51"/><path d="M1446,837L1575,566L1412,552Z" fill="#c1500a" stroke="#c1500a" stroke-width="1.51"/><path d="M1402,-190L1180,-216L1207,5Z" fill="#eba267" stroke="#eba267" stroke-width="1.51"/><path d="M1102,-196L1180,-216L684,-208Z" fill="#feb678" stroke="#feb678" stroke-width="1.51"/><path d="M1664,576L1575,566L1731,738Z" fill="#b04c0d" stroke="#b04c0d" stroke-width="1.51"/><path d="M1524,354L1558,206L1426,268Z" fill="#cb7b28" stroke="#cb7b28" stroke-width="1.51"/><path d="M1410,76L1448,-12L1364,11Z" fill="#da9453" stroke="#da9453" stroke-width="1.51"/><path d="M1364,11L1402,-190L1207,5Z" fill="#e49d5e" stroke="#e49d5e" stroke-width="1.51"/><path d="M1615,342L1558,206L1524,354Z" fill="#c47626" stroke="#c47626" stroke-width="1.51"/><path d="M1558,206L1448,-12L1410,76Z" fill="#d18d4a" stroke="#d18d4a" stroke-width="1.51"/><path d="M1575,566L1612,415L1452,452Z" fill="#c36114" stroke="#c36114" stroke-width="1.51"/><path d="M530,1293L727,1053L504,1086Z" fill="#b36920" stroke="#b36920" stroke-width="1.51"/><path d="M842,1229L1186,1253L1064,1180Z" fill="#a3460c" stroke="#a3460c" stroke-width="1.51"/><path d="M46,330L-47,355L31,458Z" fill="#ffce77" stroke="#ffce77" stroke-width="1.51"/><path d="M31,458L-145,648L121,619Z" fill="#feb869" stroke="#feb869" stroke-width="1.51"/><path d="M-65,149L-47,355L46,330Z" fill="#ffdc84" stroke="#ffdc84" stroke-width="1.51"/><path d="M-65,149L46,330L110,159Z" fill="#ffdf8a" stroke="#ffdf8a" stroke-width="1.51"/><path d="M375,1264L504,1086L368,1034Z" fill="#b7772f" stroke="#b7772f" stroke-width="1.51"/><path d="M206,956L120,991L276,1061Z" fill="#cc8a4a" stroke="#cc8a4a" stroke-width="1.51"/><path d="M102,738L120,991L227,836Z" fill="#e39751" stroke="#e39751" stroke-width="1.51"/><path d="M-75,792L120,991L102,738Z" fill="#e79c59" stroke="#e79c59" stroke-width="1.51"/><path d="M1186,1253L1227,1093L1064,1180Z" fill="#9c3d08" stroke="#9c3d08" stroke-width="1.51"/><path d="M1287,1216L1341,1102L1227,1093Z" fill="#963706" stroke="#963706" stroke-width="1.51"/><path d="M1227,1093L1341,1102L1265,874Z" fill="#a83c04" stroke="#a83c04" stroke-width="1.51"/><path d="M1612,415L1615,342L1524,354Z" fill="#c26d1f" stroke="#c26d1f" stroke-width="1.51"/><path d="M375,1264L368,1034L276,1061Z" fill="#b87b38" stroke="#b87b38" stroke-width="1.51"/><path d="M370,-180L226,-183L283,9Z" fill="#ffe8a0" stroke="#ffe8a0" stroke-width="1.51"/><path d="M500,-242L226,-183L370,-180Z" fill="#ffe6a0" stroke="#ffe6a0" stroke-width="1.51"/><path d="M226,-183L126,-85L283,9Z" fill="#ffeca6" stroke="#ffeca6" stroke-width="1.51"/><path d="M-47,355L-89,448L31,458Z" fill="#ffcb77" stroke="#ffcb77" stroke-width="1.51"/><path d="M-161,424L-89,448L-47,355Z" fill="#ffcd7d" stroke="#ffcd7d" stroke-width="1.51"/><path d="M742,1308L1186,1253L842,1229Z" fill="#a84d10" stroke="#a84d10" stroke-width="1.51"/><path d="M270,1281L375,1264L276,1061Z" fill="#b27b3c" stroke="#b27b3c" stroke-width="1.51"/><path d="M1575,566L1664,576L1612,415Z" fill="#ba5a13" stroke="#ba5a13" stroke-width="1.51"/><path d="M1612,415L1664,576L1615,342Z" fill="#bc6217" stroke="#bc6217" stroke-width="1.51"/><path d="M1731,738L1575,566L1446,837Z" fill="#b14608" stroke="#b14608" stroke-width="1.51"/><path d="M1632,959L1446,837L1443,890Z" fill="#a43904" stroke="#a43904" stroke-width="1.51"/><path d="M1341,1102L1447,1083L1427,893Z" fill="#9b3605" stroke="#9b3605" stroke-width="1.51"/><path d="M1186,1253L1287,1216L1227,1093Z" fill="#973806" stroke="#973806" stroke-width="1.51"/><path d="M1521,1222L1447,1083L1341,1102Z" fill="#893006" stroke="#893006" stroke-width="1.51"/><path d="M-76,45L-65,149L110,159Z" fill="#ffe99f" stroke="#ffe99f" stroke-width="1.51"/><path d="M1448,-12L1402,-190L1364,11Z" fill="#db995d" stroke="#db995d" stroke-width="1.51"/><path d="M1453,-218L1402,-190L1448,-12Z" fill="#d99965" stroke="#d99965" stroke-width="1.51"/><path d="M1668,122L1448,-12L1558,206Z" fill="#c88847" stroke="#c88847" stroke-width="1.51"/><path d="M-145,648L102,738L121,619Z" fill="#f8ae63" stroke="#f8ae63" stroke-width="1.51"/><path d="M120,991L86,1107L276,1061Z" fill="#c4884c" stroke="#c4884c" stroke-width="1.51"/><path d="M-101,1054L86,1107L120,991Z" fill="#c78d56" stroke="#c78d56" stroke-width="1.51"/><path d="M-161,424L-145,648L-89,448Z" fill="#ffc378" stroke="#ffc378" stroke-width="1.51"/><path d="M-89,448L-145,648L31,458Z" fill="#ffc172" stroke="#ffc172" stroke-width="1.51"/><path d="M-191,301L-161,424L-47,355Z" fill="#ffd485" stroke="#ffd485" stroke-width="1.51"/><path d="M86,1107L270,1281L276,1061Z" fill="#b48147" stroke="#b48147" stroke-width="1.51"/><path d="M375,1264L270,1281L530,1293Z" fill="#b17632" stroke="#b17632" stroke-width="1.51"/><path d="M530,1293L270,1281L742,1308Z" fill="#b06e25" stroke="#b06e25" stroke-width="1.51"/><path d="M1615,342L1668,122L1558,206Z" fill="#c07b32" stroke="#c07b32" stroke-width="1.51"/><path d="M1664,576L1668,122L1615,342Z" fill="#bb6d21" stroke="#bb6d21" stroke-width="1.51"/><path d="M126,-85L-76,45L110,159Z" fill="#ffeca4" stroke="#ffeca4" stroke-width="1.51"/><path d="M-65,149L-191,301L-47,355Z" fill="#ffde8b" stroke="#ffde8b" stroke-width="1.51"/><path d="M34,-164L-76,45L126,-85Z" fill="#fff3b3" stroke="#fff3b3" stroke-width="1.51"/><path d="M1402,-190L1453,-218L1180,-216Z" fill="#e4a06e" stroke="#e4a06e" stroke-width="1.51"/><path d="M1180,-216L1453,-218L500,-242Z" fill="#fbb379" stroke="#fbb379" stroke-width="1.51"/><path d="M1648,-86L1453,-218L1448,-12Z" fill="#d09460" stroke="#d09460" stroke-width="1.51"/><path d="M1683,1078L1632,959L1447,1083Z" fill="#872e06" stroke="#872e06" stroke-width="1.51"/><path d="M1447,1083L1632,959L1443,890Z" fill="#983404" stroke="#983404" stroke-width="1.51"/><path d="M226,-183L34,-164L126,-85Z" fill="#fff1b4" stroke="#fff1b4" stroke-width="1.51"/><path d="M-42,-187L34,-164L226,-183Z" fill="#fff4bd" stroke="#fff4bd" stroke-width="1.51"/><path d="M1664,576L1731,738L1668,122Z" fill="#b45c15" stroke="#b45c15" stroke-width="1.51"/><path d="M1632,959L1731,738L1446,837Z" fill="#a13a05" stroke="#a13a05" stroke-width="1.51"/><path d="M-202,148L-191,301L-65,149Z" fill="#ffe59c" stroke="#ffe59c" stroke-width="1.51"/><path d="M-280,540L-176,815L-145,648Z" fill="#fbb375" stroke="#fbb375" stroke-width="1.51"/><path d="M-145,648L-176,815L-75,792Z" fill="#f3a96b" stroke="#f3a96b" stroke-width="1.51"/><path d="M-75,792L-137,935L120,991Z" fill="#de9a5e" stroke="#de9a5e" stroke-width="1.51"/><path d="M-280,540L-145,648L-161,424Z" fill="#ffc07c" stroke="#ffc07c" stroke-width="1.51"/><path d="M86,1107L54,1190L270,1281Z" fill="#b3824d" stroke="#b3824d" stroke-width="1.51"/><path d="M-101,1054L54,1190L86,1107Z" fill="#bc8a57" stroke="#bc8a57" stroke-width="1.51"/><path d="M-176,815L-137,935L-75,792Z" fill="#e8a167" stroke="#e8a167" stroke-width="1.51"/><path d="M1713,-202L1648,-86L1668,122Z" fill="#bd8b59" stroke="#bd8b59" stroke-width="1.51"/><path d="M1668,122L1648,-86L1448,-12Z" fill="#c68c53" stroke="#c68c53" stroke-width="1.51"/><path d="M-191,301L-280,540L-161,424Z" fill="#ffce84" stroke="#ffce84" stroke-width="1.51"/><path d="M-76,45L-202,148L-65,149Z" fill="#ffeca8" stroke="#ffeca8" stroke-width="1.51"/><path d="M-223,-33L-202,148L-76,45Z" fill="#fff1b4" stroke="#fff1b4" stroke-width="1.51"/><path d="M1632,959L1683,1078L1731,738Z" fill="#8e3206" stroke="#8e3206" stroke-width="1.51"/><path d="M1287,1216L1521,1222L1341,1102Z" fill="#893106" stroke="#893106" stroke-width="1.51"/><path d="M1186,1253L1521,1222L1287,1216Z" fill="#8e3406" stroke="#8e3406" stroke-width="1.51"/><path d="M742,1308L1521,1222L1186,1253Z" fill="#9d3e09" stroke="#9d3e09" stroke-width="1.51"/><path d="M-137,935L-101,1054L120,991Z" fill="#d0945d" stroke="#d0945d" stroke-width="1.51"/><path d="M-95,1237L-101,1054L-224,1192Z" fill="#b58b62" stroke="#b58b62" stroke-width="1.51"/><path d="M34,-164L-42,-187L-76,45Z" fill="#fff6bc" stroke="#fff6bc" stroke-width="1.51"/><path d="M500,-242L-42,-187L226,-183Z" fill="#ffeeb1" stroke="#ffeeb1" stroke-width="1.51"/><path d="M-281,964L-101,1054L-137,935Z" fill="#d39767" stroke="#d39767" stroke-width="1.51"/><path d="M-202,148L-280,540L-191,301Z" fill="#ffd98f" stroke="#ffd98f" stroke-width="1.51"/><path d="M1521,1222L1683,1078L1447,1083Z" fill="#7e2c06" stroke="#7e2c06" stroke-width="1.51"/><path d="M-42,-187L-223,-33L-76,45Z" fill="#fff6be" stroke="#fff6be" stroke-width="1.51"/><path d="M-202,148L-223,-33L-280,540Z" fill="#ffe59f" stroke="#ffe59f" stroke-width="1.51"/><path d="M1648,-86L1713,-202L1453,-218Z" fill="#c69166" stroke="#c69166" stroke-width="1.51"/><path d="M1731,738L1713,-202L1668,122Z" fill="#b67832" stroke="#b67832" stroke-width="1.51"/><path d="M-101,1054L-95,1237L54,1190Z" fill="#b58a5b" stroke="#b58a5b" stroke-width="1.51"/><path d="M54,1190L-95,1237L270,1281Z" fill="#b48552" stroke="#b48552" stroke-width="1.51"/><path d="M-281,964L-137,935L-176,815Z" fill="#e09e6b" stroke="#e09e6b" stroke-width="1.51"/><path d="M-280,540L-281,964L-176,815Z" fill="#f3a973" stroke="#f3a973" stroke-width="1.51"/><path d="M-42,-187L-174,-208L-223,-33Z" fill="#fffaca" stroke="#fffaca" stroke-width="1.51"/><path d="M500,-242L-174,-208L-42,-187Z" fill="#fff4be" stroke="#fff4be" stroke-width="1.51"/><path d="M1521,1222L1715,1199L1683,1078Z" fill="#702806" stroke="#702806" stroke-width="1.51"/><path d="M1683,1078L1715,1199L1731,738Z" fill="#802c06" stroke="#802c06" stroke-width="1.51"/><path d="M-280,540L-299,1059L-281,964Z" fill="#e9a273" stroke="#e9a273" stroke-width="1.51"/><path d="M-281,964L-299,1059L-101,1054Z" fill="#cd956a" stroke="#cd956a" stroke-width="1.51"/><path d="M-299,1059L-224,1192L-101,1054Z" fill="#c08f68" stroke="#c08f68" stroke-width="1.51"/></svg>